<?xml version="1.0" encoding="UTF-8"?>
<!DOCTYPE svg PUBLIC "-//W3C//DTD SVG 1.1//EN" "http://www.w3.org/Graphics/SVG/1.1/DTD/svg11.dtd">
<!-- Creator: CorelDRAW 2020 (64-Bit) -->
<svg xmlns="http://www.w3.org/2000/svg" xml:space="preserve" width="8.26772in" height="11.6929in" version="1.1" style="shape-rendering:geometricPrecision; text-rendering:geometricPrecision; image-rendering:optimizeQuality; fill-rule:evenodd; clip-rule:evenodd"
viewBox="0 0 8267.72 11692.91"
 xmlns:xlink="http://www.w3.org/1999/xlink"
 xmlns:xodm="http://www.corel.com/coreldraw/odm/2003">
 <defs>
  <style type="text/css">
   <![CDATA[
    .fil0 {fill:#F66E00}
   ]]>
  </style>
 </defs>
 <g id="Layer_x0020_1">
  <metadata id="CorelCorpID_0Corel-Layer"/>
  <path class="fil0" d="M2553.96 2821.21c258.37,-385.84 869.16,-523.14 1307.53,-206.59 87.48,63.17 261.52,231.72 280.89,331.05 1.58,1.7 3.56,4.22 4.43,5.38l22.3 35.73c49.59,96.84 90.83,270.58 89.63,380.18 -0.69,63.06 -16.69,184.35 -31.16,237.55 -47.9,176.12 -94.39,223.85 -170.11,356.43 -91.67,160.51 -144.28,210.45 -250.79,342.76l-92.06 99.41c-25.31,27.37 -33.55,43.85 -62.02,72 -23.23,22.97 -42.89,45.91 -67.53,66.5 -98.61,82.43 -164.44,155.17 -280.3,246.23l-142.14 116.34c-138.75,108.33 -469.36,341.43 -627.81,425.27 -216.6,-145.04 -518.27,-362.15 -710.89,-533.64 -23.64,-21.04 -34.7,-25.65 -57.48,-47.83 -24.96,-24.3 -29.91,-27.83 -56.37,-48.94l-98.63 -93.37c-0.78,-2.99 -3.56,-2.97 -5.26,-4.55l-239.33 -238.57c-37.01,-48.5 -135.39,-149.07 -214.73,-254.37 -48.08,-63.82 -85.34,-123.5 -129.98,-185.94 -309.29,-432.64 -202.43,-1006.43 214.7,-1307.6 295.45,-213.32 661.48,-230.6 975.7,-74.27 132.45,65.9 175.72,110.55 267.35,201.74 27.85,27.72 42.79,58.19 74.06,79.12z"/>
 </g>
</svg>
